<svg xmlns="http://www.w3.org/2000/svg" width="70" height="70" viewBox="0 0 70 70">
  <path fill="#4990E2" fill-rule="evenodd" d="M61.8446602,29.9029126 L70,21.7475728 L48.2524272,0 L40.0970874,8.15533981 L61.8446602,29.9029126 L61.8446602,29.9029126 L61.8446602,29.9029126 L61.8446602,29.9029126 L61.8446602,29.9029126 L61.8446602,29.9029126 L61.8446602,29.9029126 L61.8446602,29.9029126 L61.8446602,29.9029126 L61.8446602,29.9029126 Z M0,70 L21.7475728,70 L59.579288,32.1682848 L37.8317152,10.420712 L0,48.2524272 L0,70 Z M7.14861566,46.9615296 L22.8119332,62.6248471 L19.7134271,65.7233533 L7.16334783,65.7092437 L7.16334783,62.6062627 L4.06424958,62.6062627 L4.05010949,50.0600357 L7.14861566,46.9615296 Z M13.592233,46.4401294 L10.8737864,43.7216828 L38.0582524,16.5372168 L40.776699,19.2556634 L13.592233,46.4401294 L13.592233,46.4401294 L13.592233,46.4401294 L13.592233,46.4401294 L13.592233,46.4401294 L13.592233,46.4401294 L13.592233,46.4401294 Z"/>
</svg>
