<svg xmlns="http://www.w3.org/2000/svg" width="70" height="60" viewBox="0 0 70 60">
  <path fill="#4990E2" fill-rule="evenodd" d="M26.9230769,40.3846154 C26.9230769,41.5064159 26.7477982,42.6562441 26.3972356,43.8341346 C26.0466729,45.0120251 25.4437142,46.0777196 24.5883413,47.03125 C23.7329685,47.9847804 22.716352,48.4615385 21.5384615,48.4615385 C20.360571,48.4615385 19.3439546,47.9847804 18.4885817,47.03125 C17.6332089,46.0777196 17.0302502,45.0120251 16.6796875,43.8341346 C16.3291248,42.6562441 16.1538462,41.5064159 16.1538462,40.3846154 C16.1538462,39.2628149 16.3291248,38.1129867 16.6796875,36.9350962 C17.0302502,35.7572056 17.6332089,34.6915112 18.4885817,33.7379808 C19.3439546,32.7844504 20.360571,32.3076923 21.5384615,32.3076923 C22.716352,32.3076923 23.7329685,32.7844504 24.5883413,33.7379808 C25.4437142,34.6915112 26.0466729,35.7572056 26.3972356,36.9350962 C26.7477982,38.1129867 26.9230769,39.2628149 26.9230769,40.3846154 L26.9230769,40.3846154 Z M53.8461538,40.3846154 C53.8461538,41.5064159 53.6708752,42.6562441 53.3203125,43.8341346 C52.9697498,45.0120251 52.3667911,46.0777196 51.5114183,47.03125 C50.6560454,47.9847804 49.639429,48.4615385 48.4615385,48.4615385 C47.283648,48.4615385 46.2670315,47.9847804 45.4116587,47.03125 C44.5562858,46.0777196 43.9533271,45.0120251 43.6027644,43.8341346 C43.2522018,42.6562441 43.0769231,41.5064159 43.0769231,40.3846154 C43.0769231,39.2628149 43.2522018,38.1129867 43.6027644,36.9350962 C43.9533271,35.7572056 44.5562858,34.6915112 45.4116587,33.7379808 C46.2670315,32.7844504 47.283648,32.3076923 48.4615385,32.3076923 C49.639429,32.3076923 50.6560454,32.7844504 51.5114183,33.7379808 C52.3667911,34.6915112 52.9697498,35.7572056 53.3203125,36.9350962 C53.6708752,38.1129867 53.8461538,39.2628149 53.8461538,40.3846154 L53.8461538,40.3846154 Z M60.5769231,40.3846154 C60.5769231,37.0192139 59.6093847,34.1586656 57.6742788,31.8028846 C55.739173,29.4471036 53.1170037,28.2692308 49.8076923,28.2692308 C48.6578468,28.2692308 45.9234992,28.563699 41.6045673,29.1526442 C39.6133715,29.4611394 37.411871,29.6153846 35,29.6153846 C32.588129,29.6153846 30.3866285,29.4611394 28.3954327,29.1526442 C24.1325909,28.563699 21.3982432,28.2692308 20.1923077,28.2692308 C16.8829963,28.2692308 14.260827,29.4471036 12.3257212,31.8028846 C10.3906153,34.1586656 9.42307692,37.0192139 9.42307692,40.3846154 C9.42307692,42.8525764 9.87179038,45.0049988 10.7692308,46.8419471 C11.6666712,48.6788954 12.8024771,50.1231919 14.1766827,51.1748798 C15.5508883,52.2265678 17.2616084,53.0679055 19.3088942,53.6989183 C21.3561801,54.329931 23.3193015,54.7435888 25.1983173,54.9399038 C27.0773331,55.1362189 29.1666552,55.234375 31.4663462,55.234375 L38.5336538,55.234375 C40.8333448,55.234375 42.9226669,55.1362189 44.8016827,54.9399038 C46.6806985,54.7435888 48.6438199,54.329931 50.6911058,53.6989183 C52.7383916,53.0679055 54.4491117,52.2265678 55.8233173,51.1748798 C57.1975229,50.1231919 58.3333288,48.6788954 59.2307692,46.8419471 C60.1282096,45.0049988 60.5769231,42.8525764 60.5769231,40.3846154 L60.5769231,40.3846154 Z M70,32.9807692 C70,38.7860867 69.14464,43.4274666 67.4338942,46.9050481 C66.3681838,49.064514 64.8888316,50.9294793 62.9957933,52.5 C61.102755,54.0705207 59.1256113,55.2764381 57.0643029,56.1177885 C55.0029945,56.9591388 52.6192042,57.6251979 49.9128606,58.1159856 C47.2065169,58.6067733 44.8016932,58.9152638 42.6983173,59.0414663 C40.5949414,59.1676689 38.253218,59.2307692 35.6730769,59.2307692 C33.485566,59.2307692 31.4944,59.1887023 29.6995192,59.1045673 C27.9046385,59.0204323 25.8363498,58.8451536 23.4945913,58.578726 C21.1528328,58.3122983 19.0144328,57.8916295 17.0793269,57.3167067 C15.1442211,56.741784 13.2231666,56.0196358 11.3161058,55.1502404 C9.40904495,54.280845 7.71234718,53.1450391 6.22596154,51.7427885 C4.7395759,50.3405379 3.53365847,48.7279739 2.60817308,46.9050481 C0.869382332,43.4555116 0,38.8141317 0,32.9807692 C0,26.3341014 1.90703221,20.7812723 5.72115385,16.3221154 C4.96393852,14.0224244 4.58533654,11.6386341 4.58533654,9.17067308 C4.58533654,5.91745168 5.30047362,2.86059123 6.73076923,0 C9.75963053,0 12.4238667,0.553880679 14.7235577,1.66165865 C17.0232487,2.76943663 19.6734626,4.50119014 22.6742788,6.85697115 C26.7968956,5.87539573 31.129785,5.38461538 35.6730769,5.38461538 C39.8237387,5.38461538 43.7499815,5.83332885 47.4519231,6.73076923 C50.3966493,4.43107825 53.0188186,2.73438047 55.3185096,1.640625 C57.6182006,0.546869531 60.2684145,0 63.2692308,0 C64.6995264,2.86059123 65.4146635,5.91745168 65.4146635,9.17067308 C65.4146635,11.6105891 65.0360615,13.9663348 64.2788462,16.2379808 C68.0929678,20.7251827 70,26.3060564 70,32.9807692 L70,32.9807692 Z"/>
</svg>
