<svg xmlns="http://www.w3.org/2000/svg" width="72" height="70" viewBox="0 0 72 70">
  <path fill="#4990E2" fill-rule="evenodd" d="M35.8857979,0 C16.0692167,0 0,16.0656512 0,35.8857979 C0,51.7410832 10.2823733,65.1920178 24.5408988,69.9377285 C26.3343567,70.2699164 26.9927899,69.1586618 26.9927899,68.2114213 C26.9927899,67.3562901 26.9595117,64.5288305 26.9440611,61.5302259 C16.9605974,63.701035 14.8539677,57.2961677 14.8539677,57.2961677 C13.2215526,53.1488705 10.8694961,52.0453412 10.8694961,52.0453412 C7.61357956,49.818078 11.1149229,49.8638355 11.1149229,49.8638355 C14.7178836,50.1169876 16.6159302,53.5624711 16.6159302,53.5624711 C19.8165811,59.0480278 25.0109535,57.4619645 27.0587521,56.5456251 C27.3808376,54.2268468 28.3102506,52.6431605 29.3371211,51.7470258 C21.366395,50.8401945 12.9868223,47.7625541 12.9868223,34.0121157 C12.9868223,30.0942004 14.388667,26.8929553 16.6848637,24.379856 C16.3122665,23.475996 15.0839439,19.8260892 17.0325021,14.8830862 C17.0325021,14.8830862 20.0459631,13.9192065 26.9030576,18.5621114 C29.7655781,17.7669998 32.8354932,17.3682555 35.8852036,17.3539934 C38.9349141,17.3676613 42.0072062,17.7664056 44.8750749,18.5621114 C51.7244441,13.9192065 54.7337453,14.8830862 54.7337453,14.8830862 C56.6870575,19.8260892 55.4587349,23.475996 55.0861378,24.379856 C57.3870885,26.8929553 58.7794251,30.0942004 58.7794251,34.0121157 C58.7794251,47.7952381 50.3844018,50.8300922 42.3934711,51.7185016 C43.6806248,52.8321332 44.8275346,55.0160159 44.8275346,58.3640417 C44.8275346,63.1656123 44.7865311,67.0300447 44.7865311,68.2120155 C44.7865311,69.1669814 45.432485,70.2859613 47.2509016,69.9335688 C61.5017017,65.183104 71.7715957,51.7363292 71.7715957,35.8863921 C71.7715957,16.0656512 55.7041618,0 35.8857979,0 L35.8857979,0 Z M13.5917727,51.5235863 C13.5127369,51.7024567 13.2322491,51.7559396 12.97672,51.6335233 C12.7164369,51.5164553 12.5702504,51.2734055 12.6546345,51.0945351 C12.7318874,50.9109107 13.0129695,50.8598049 13.2726584,50.9828154 C13.5335358,51.0992891 13.6820993,51.344716 13.5917727,51.5235863 L13.5917727,51.5235863 Z M15.0459117,53.1453049 C14.8747666,53.3039707 14.5396075,53.2302832 14.3131968,52.9795081 C14.0778723,52.7293273 14.0344918,52.3947624 14.2080139,52.2337196 C14.3845072,52.0750539 14.7089698,52.1493356 14.9437001,52.3995164 C15.1784303,52.6526685 15.2241878,52.9842622 15.0459117,53.1453049 L15.0459117,53.1453049 Z M16.4602357,55.2115254 C16.2403618,55.3648428 15.880244,55.2216277 15.6579931,54.9019191 C15.4381192,54.5828049 15.4381192,54.1995112 15.6633414,54.0467879 C15.8855923,53.8934705 16.2403618,54.0319316 16.465584,54.3480746 C16.6848637,54.6725372 16.6848637,55.0558309 16.4602357,55.2115254 L16.4602357,55.2115254 Z M18.3986916,57.2088124 C18.2019936,57.425715 17.7830447,57.3674781 17.4764097,57.0715397 C17.1626437,56.7827324 17.0752884,56.3715088 17.2719864,56.1546061 C17.4716557,55.9377035 17.8929816,55.9983174 18.2013993,56.2918788 C18.5133826,56.5806861 18.6084632,56.9936925 18.3986916,57.2088124 L18.3986916,57.2088124 Z M21.0728336,58.3682015 C20.9860726,58.6492835 20.5825743,58.7770481 20.1761047,58.6570088 C19.7696351,58.5339983 19.5045979,58.2047817 19.5866049,57.9213227 C19.670989,57.6378636 20.07627,57.505345 20.4857109,57.6331096 C20.890992,57.7555258 21.1572177,58.0817712 21.0728336,58.3682015 L21.0728336,58.3682015 Z M24.0102301,58.5827271 C24.0203324,58.8786655 23.6756652,59.1240923 23.248991,59.1294406 C22.8199398,59.1395429 22.4723013,58.8994644 22.4681415,58.60828 C22.4681415,58.3093704 22.8050834,58.0669148 23.2341347,58.0591895 C23.6602146,58.0514642 24.0102301,58.2891657 24.0102301,58.5827271 L24.0102301,58.5827271 Z M26.7426091,58.1180207 C26.7937149,58.4062337 26.4971822,58.7027664 26.0734793,58.7818021 C25.6569074,58.8584609 25.2712367,58.6795905 25.2183481,58.3937544 C25.166648,58.097816 25.4685289,57.8012834 25.8845066,57.7246246 C26.3088038,57.6509372 26.688532,57.8244593 26.7426091,58.1180207 L26.7426091,58.1180207 Z"/>
</svg>
