<svg xmlns="http://www.w3.org/2000/svg" width="72" height="71" viewBox="0 0 72 71">
  <path fill="#4990E2" fill-rule="evenodd" d="M35.8857979,0.554156595 C16.0692167,0.554156595 0,16.6198078 0,36.4399545 C0,52.2952398 10.2823733,65.7461744 24.5408988,70.4918851 C26.3343567,70.824073 26.9927899,69.7128184 26.9927899,68.7655779 C26.9927899,67.9104467 26.9595117,65.0829871 26.9440611,62.0843825 C16.9605974,64.2551916 14.8539677,57.8503243 14.8539677,57.8503243 C13.2215526,53.7030271 10.8694961,52.5994978 10.8694961,52.5994978 C7.61357956,50.3722346 11.1149229,50.4179921 11.1149229,50.4179921 C14.7178836,50.6711442 16.6159302,54.1166277 16.6159302,54.1166277 C19.8165811,59.6021844 25.0109535,58.0161211 27.0587521,57.0997817 C27.3808376,54.7810034 28.3102506,53.1973171 29.3371211,52.3011824 C21.366395,51.3943511 12.9868223,48.3167107 12.9868223,34.5662723 C12.9868223,30.648357 14.388667,27.4471119 16.6848637,24.9340126 C16.3122665,24.0301526 15.0839439,20.3802458 17.0325021,15.4372428 C17.0325021,15.4372428 20.0459631,14.4733631 26.9030576,19.116268 C29.7655781,18.3211564 32.8354932,17.9224121 35.8852036,17.90815 C38.9349141,17.9218179 42.0072062,18.3205622 44.8750749,19.116268 C51.7244441,14.4733631 54.7337453,15.4372428 54.7337453,15.4372428 C56.6870575,20.3802458 55.4587349,24.0301526 55.0861378,24.9340126 C57.3870885,27.4471119 58.7794251,30.648357 58.7794251,34.5662723 C58.7794251,48.3493947 50.3844018,51.3842488 42.3934711,52.2726582 C43.6806248,53.3862898 44.8275346,55.5701725 44.8275346,58.9181983 C44.8275346,63.7197689 44.7865311,67.5842013 44.7865311,68.7661721 C44.7865311,69.721138 45.432485,70.8401179 47.2509016,70.4877254 C61.5017017,65.7372606 71.7715957,52.2904858 71.7715957,36.4405487 C71.7715957,16.6198078 55.7041618,0.554156595 35.8857979,0.554156595 L35.8857979,0.554156595 Z M13.5917727,52.0777429 C13.5127369,52.2566133 13.2322491,52.3100962 12.97672,52.1876799 C12.7164369,52.0706119 12.5702504,51.8275621 12.6546345,51.6486917 C12.7318874,51.4650673 13.0129695,51.4139615 13.2726584,51.536972 C13.5335358,51.6534457 13.6820993,51.8988726 13.5917727,52.0777429 L13.5917727,52.0777429 Z M15.0459117,53.6994615 C14.8747666,53.8581273 14.5396075,53.7844398 14.3131968,53.5336647 C14.0778723,53.2834839 14.0344918,52.948919 14.2080139,52.7878762 C14.3845072,52.6292105 14.7089698,52.7034922 14.9437001,52.953673 C15.1784303,53.2068251 15.2241878,53.5384188 15.0459117,53.6994615 L15.0459117,53.6994615 Z M16.4602357,55.765682 C16.2403618,55.9189994 15.880244,55.7757843 15.6579931,55.4560757 C15.4381192,55.1369615 15.4381192,54.7536678 15.6633414,54.6009445 C15.8855923,54.4476271 16.2403618,54.5860882 16.465584,54.9022312 C16.6848637,55.2266938 16.6848637,55.6099875 16.4602357,55.765682 L16.4602357,55.765682 Z M18.3986916,57.762969 C18.2019936,57.9798716 17.7830447,57.9216347 17.4764097,57.6256963 C17.1626437,57.336889 17.0752884,56.9256654 17.2719864,56.7087627 C17.4716557,56.4918601 17.8929816,56.552474 18.2013993,56.8460354 C18.5133826,57.1348427 18.6084632,57.5478491 18.3986916,57.762969 L18.3986916,57.762969 Z M21.0728336,58.9223581 C20.9860726,59.2034401 20.5825743,59.3312047 20.1761047,59.2111654 C19.7696351,59.0881549 19.5045979,58.7589383 19.5866049,58.4754792 C19.670989,58.1920202 20.07627,58.0595016 20.4857109,58.1872662 C20.890992,58.3096824 21.1572177,58.6359278 21.0728336,58.9223581 L21.0728336,58.9223581 Z M24.0102301,59.1368837 C24.0203324,59.4328221 23.6756652,59.6782489 23.248991,59.6835972 C22.8199398,59.6936995 22.4723013,59.453621 22.4681415,59.1624366 C22.4681415,58.863527 22.8050834,58.6210714 23.2341347,58.6133461 C23.6602146,58.6056208 24.0102301,58.8433223 24.0102301,59.1368837 L24.0102301,59.1368837 Z M26.7426091,58.6721773 C26.7937149,58.9603903 26.4971822,59.256923 26.0734793,59.3359587 C25.6569074,59.4126175 25.2712367,59.2337471 25.2183481,58.947911 C25.166648,58.6519726 25.4685289,58.35544 25.8845066,58.2787812 C26.3088038,58.2050938 26.688532,58.3786159 26.7426091,58.6721773 L26.7426091,58.6721773 Z"/>
</svg>
