<svg xmlns="http://www.w3.org/2000/svg" width="70" height="70" viewBox="0 0 70 70">
  <path fill="#4990E2" fill-rule="evenodd" d="M70,65.625 C70,68.04 68.04,70 65.625,70 L4.375,70 C1.96,70 0,68.04 0,65.625 L0,4.375 C0,1.96 1.96,0 4.375,0 L65.625,0 C68.04,0 70,1.96 70,4.375 L70,65.625 L70,65.625 L70,65.625 L70,65.625 Z M15.3125,24.0625 L24.0625,24.0625 L24.0625,54.6875 L15.3125,54.6875 L15.3125,24.0625 L15.3125,24.0625 L15.3125,24.0625 L15.3125,24.0625 Z M44.8415625,24.0625 C38.73625,24.0625 37.68625,26.289375 37.1875,28.4375 L37.1875,24.0625 L28.4375,24.0625 L28.4375,54.6875 L37.1875,54.6875 L37.1875,37.1875 C37.1875,34.3503125 38.7253125,32.8125 41.5625,32.8125 C44.331875,32.8125 45.9375,34.3175 45.9375,37.1875 L45.9375,54.6875 L54.6875,54.6875 L54.6875,39.375 C54.6875,30.625 53.5478125,24.0625 44.8415625,24.0625 L44.8415625,24.0625 L44.8415625,24.0625 L44.8415625,24.0625 Z M19.6875,21.875 C22.1037458,21.875 24.0625,19.9162458 24.0625,17.5 C24.0625,15.0837542 22.1037458,13.125 19.6875,13.125 C17.2712542,13.125 15.3125,15.0837542 15.3125,17.5 C15.3125,19.9162458 17.2712542,21.875 19.6875,21.875 L19.6875,21.875 Z"/>
</svg>
