<svg xmlns="http://www.w3.org/2000/svg" width="70" height="71" viewBox="0 0 70 71">
  <path fill="#4990E2" fill-rule="evenodd" d="M70,66.4249419 C70,68.8399419 68.04,70.7999419 65.625,70.7999419 L4.375,70.7999419 C1.96,70.7999419 0,68.8399419 0,66.4249419 L0,5.17494189 C0,2.75994189 1.96,0.799941886 4.375,0.799941886 L65.625,0.799941886 C68.04,0.799941886 70,2.75994189 70,5.17494189 L70,66.4249419 L70,66.4249419 L70,66.4249419 L70,66.4249419 Z M15.3125,24.8624419 L24.0625,24.8624419 L24.0625,55.4874419 L15.3125,55.4874419 L15.3125,24.8624419 L15.3125,24.8624419 L15.3125,24.8624419 L15.3125,24.8624419 Z M44.8415625,24.8624419 C38.73625,24.8624419 37.68625,27.0893169 37.1875,29.2374419 L37.1875,24.8624419 L28.4375,24.8624419 L28.4375,55.4874419 L37.1875,55.4874419 L37.1875,37.9874419 C37.1875,35.1502544 38.7253125,33.6124419 41.5625,33.6124419 C44.331875,33.6124419 45.9375,35.1174419 45.9375,37.9874419 L45.9375,55.4874419 L54.6875,55.4874419 L54.6875,40.1749419 C54.6875,31.4249419 53.5478125,24.8624419 44.8415625,24.8624419 L44.8415625,24.8624419 L44.8415625,24.8624419 L44.8415625,24.8624419 Z M19.6875,22.6749419 C22.1037458,22.6749419 24.0625,20.7161877 24.0625,18.2999419 C24.0625,15.8836961 22.1037458,13.9249419 19.6875,13.9249419 C17.2712542,13.9249419 15.3125,15.8836961 15.3125,18.2999419 C15.3125,20.7161877 17.2712542,22.6749419 19.6875,22.6749419 L19.6875,22.6749419 Z"/>
</svg>
