<svg xmlns="http://www.w3.org/2000/svg" width="70" height="64" viewBox="0 0 70 64">
  <path fill="#4990E2" fill-rule="evenodd" d="M0,18.2608696 L9.05172414,18.2608696 L9.05172414,27.3913043 L0,27.3913043 L0,18.2608696 L0,18.2608696 L0,18.2608696 L0,18.2608696 L0,18.2608696 L0,18.2608696 Z M0,36.5217391 L9.05172414,36.5217391 L9.05172414,45.6521739 L0,45.6521739 L0,36.5217391 L0,36.5217391 L0,36.5217391 L0,36.5217391 L0,36.5217391 L0,36.5217391 Z M0,54.7826087 L9.05172414,54.7826087 L9.05172414,63.9130435 L0,63.9130435 L0,54.7826087 L0,54.7826087 L0,54.7826087 L0,54.7826087 L0,54.7826087 L0,54.7826087 Z M0,0 L9.05172414,0 L9.05172414,9.13043478 L0,9.13043478 L0,0 L0,0 L0,0 L0,0 L0,0 L0,0 Z M70,0 L16.8965517,0 L16.8965517,9.13043478 L70,9.13043478 L70,0 L70,0 L70,0 L70,0 L70,0 L70,0 Z M70,36.5217391 L16.8965517,36.5217391 L16.8965517,45.6521739 L70,45.6521739 L70,36.5217391 L70,36.5217391 L70,36.5217391 L70,36.5217391 L70,36.5217391 L70,36.5217391 Z M70,54.7826087 L16.8965517,54.7826087 L16.8965517,63.9130435 L70,63.9130435 L70,54.7826087 L70,54.7826087 L70,54.7826087 L70,54.7826087 L70,54.7826087 L70,54.7826087 L70,54.7826087 Z M70,18.2608696 L16.8965517,18.2608696 L16.8965517,27.3913043 L70,27.3913043 L70,18.2608696 L70,18.2608696 L70,18.2608696 L70,18.2608696 L70,18.2608696 L70,18.2608696 Z"/>
</svg>
