<svg xmlns="http://www.w3.org/2000/svg" width="51" height="70" viewBox="0 0 51 70">
  <path fill="#4990E2" fill-rule="evenodd" d="M7.4578557,0.519217802 C8.74803972,0.17307087 10.3528787,0 12.2724208,0 C15.5450827,0 17.9995423,0.849620634 19.6358732,2.54888739 C21.2407363,4.27962205 22.751173,7.0802234 24.1672286,10.9507755 L43.661497,59.0964262 C44.1335155,60.0404633 44.6841955,60.937285 45.3135536,61.7869184 C45.9743796,62.6365518 46.8240002,63.0613621 47.862441,63.0613621 L50.2697235,63.0613621 L50.2697235,70 L45.3135536,70 C40.6877719,70 37.5095614,67.6084753 35.7788267,62.825354 L23.9784221,31.7194875 L9.39312205,70 L0,70 L19.8246797,21.3823331 L16.3317599,12.0836143 C15.1045117,8.93682401 13.1692647,7.42638732 10.5259609,7.55225893 L7.4578557,7.55225893 L7.4578557,0.519217802 Z"/>
</svg>
