<svg xmlns="http://www.w3.org/2000/svg" width="51" height="71" viewBox="0 0 51 71">
  <path fill="#4990E2" fill-rule="evenodd" d="M7.4578557,1.11910157 C8.74803972,0.772954642 10.3528787,0.599883772 12.2724208,0.599883772 C15.5450827,0.599883772 17.9995423,1.44950441 19.6358732,3.14877116 C21.2407363,4.87950582 22.751173,7.68010717 24.1672286,11.5506592 L43.661497,59.6963099 C44.1335155,60.640347 44.6841955,61.5371688 45.3135536,62.3868022 C45.9743796,63.2364356 46.8240002,63.6612459 47.862441,63.6612459 L50.2697235,63.6612459 L50.2697235,70.5998838 L45.3135536,70.5998838 C40.6877719,70.5998838 37.5095614,68.208359 35.7788267,63.4252378 L23.9784221,32.3193713 L9.39312205,70.5998838 L0,70.5998838 L19.8246797,21.9822169 L16.3317599,12.6834981 C15.1045117,9.53670778 13.1692647,8.0262711 10.5259609,8.15214271 L7.4578557,8.15214271 L7.4578557,1.11910157 Z"/>
</svg>
