<svg xmlns="http://www.w3.org/2000/svg" width="70" height="71" viewBox="0 0 70 71">
  <path fill="#4990E2" fill-rule="evenodd" d="M70,0.147826087 L0,0.147826087 L0,14.1478261 L70,14.1478261 L70,0.147826087 L70,0.147826087 L70,0.147826087 L70,0.147826087 L70,0.147826087 L70,0.147826087 Z M70,56.1478261 L0,56.1478261 L0,70.1478261 L70,70.1478261 L70,56.1478261 L70,56.1478261 L70,56.1478261 L70,56.1478261 L70,56.1478261 L70,56.1478261 Z M70,28.1478261 L0,28.1478261 L0,42.1478261 L70,42.1478261 L70,28.1478261 L70,28.1478261 L70,28.1478261 L70,28.1478261 L70,28.1478261 L70,28.1478261 Z"/>
</svg>
