<svg xmlns="http://www.w3.org/2000/svg" width="16" height="70" viewBox="0 0 16 70">
  <path fill="#4990E2" fill-rule="evenodd" d="M15.5473295,7.77366473 C15.5473295,3.48038825 12.0669412,0 7.77366473,0 C3.48038825,0 0,3.48038825 0,7.77366473 C0,12.0669412 3.48038825,15.5473295 7.77366473,15.5473295 C12.0669412,15.5473295 15.5473295,12.0669412 15.5473295,7.77366473 Z M7.77366473,70 C12.0669412,70 15.5473295,66.5196118 15.5473295,62.2263353 C15.5473295,57.9330588 12.0669412,54.4526705 7.77366473,54.4526705 C3.48038825,54.4526705 0,57.9330588 0,62.2263353 C0,66.5196118 3.48038825,70 7.77366473,70 L7.77366473,70 Z M7.77366473,42.7736647 C12.0669412,42.7736647 15.5473295,39.2932765 15.5473295,35 C15.5473295,30.7067235 12.0669412,27.2263353 7.77366473,27.2263353 C3.48038825,27.2263353 0,30.7067235 0,35 C0,39.2932765 3.48038825,42.7736647 7.77366473,42.7736647 L7.77366473,42.7736647 Z"/>
</svg>
