<svg xmlns="http://www.w3.org/2000/svg" width="70" height="70" viewBox="0 0 70 70">
  <path fill="#4990E2" fill-rule="evenodd" d="M68.9063178,0.429660859 C69.7656438,1.05462523 70.117181,1.88789857 69.9609399,2.92950586 L59.9615599,62.9257858 C59.831359,63.6809511 59.4147224,64.2668464 58.7116374,64.6834893 C58.3470749,64.8918108 57.9434581,64.9959699 57.500775,64.9959699 C57.214333,64.9959699 56.9018555,64.9308704 56.5633331,64.8006695 L38.8691178,57.5745551 L29.4165789,69.0972781 C28.9478556,69.6962023 28.3098807,69.9956599 27.5026351,69.9956599 C27.1641127,69.9956599 26.877675,69.9435803 26.6433133,69.8394196 C26.1485499,69.6571383 25.751443,69.3511708 25.451981,68.9215078 C25.1525189,68.4918448 25.0027901,68.0166186 25.0027901,67.4958149 L25.0027901,53.8638477 L58.7506975,12.499225 L16.995474,48.6297972 L1.56674321,42.3020646 C0.603256466,41.937502 0.0824606329,41.2214077 0.0043400861,40.1537603 C-0.0477402784,39.112153 0.368896388,38.3439791 1.25426258,37.8492157 L66.2502325,0.351540703 C66.6408352,0.117179062 67.0574719,0 67.500155,0 C68.0209586,0 68.4896749,0.143218854 68.9063178,0.429660859 L68.9063178,0.429660859 Z"/>
</svg>
