<svg xmlns="http://www.w3.org/2000/svg" width="70" height="41" viewBox="0 0 70 41">
  <path fill="#4990E2" fill-rule="evenodd" d="M70,20.2027711 C63.0136914,32.2800153 49.955755,40.4055421 35,40.4055421 C20.044245,40.4055421 6.98630855,32.2800153 0,20.2027711 C6.98630855,8.12552684 20.044245,5.68434189e-14 35,5.68434189e-14 C49.955755,5.68434189e-14 63.0136914,8.12552684 70,20.2027711 L70,20.2027711 L70,20.2027711 L70,20.2027711 L70,20.2027711 L70,20.2027711 L70,20.2027711 L70,20.2027711 L70,20.2027711 Z M35.1217405,33.5676812 C42.5029765,33.5676812 48.4866506,27.5840071 48.4866506,20.2027711 C48.4866506,12.821535 42.5029765,6.83786098 35.1217405,6.83786098 C27.7405044,6.83786098 21.7568304,12.821535 21.7568304,20.2027711 C21.7568304,27.5840071 27.7405044,33.5676812 35.1217405,33.5676812 L35.1217405,33.5676812 L35.1217405,33.5676812 L35.1217405,33.5676812 L35.1217405,33.5676812 L35.1217405,33.5676812 L35.1217405,33.5676812 L35.1217405,33.5676812 Z M34.9219328,28.2838795 C39.2256103,28.2838795 42.7144302,24.7950596 42.7144302,20.4913821 C42.7144302,16.1877046 39.2256103,12.6988847 34.9219328,12.6988847 C30.6182554,12.6988847 27.1294354,16.1877046 27.1294354,20.4913821 C27.1294354,24.7950596 30.6182554,28.2838795 34.9219328,28.2838795 L34.9219328,28.2838795 Z"/>
</svg>
