<svg xmlns="http://www.w3.org/2000/svg" width="70" height="70" viewBox="0 0 70 70">
  <path fill="#4990E2" fill-rule="evenodd" d="M69.346562,0.653728549 C67.1206077,-1.57222576 48.3652498,1.6183328 35.5650797,14.3797909 C30.5595025,19.3826049 20.754354,31.370789 17.1004202,36.55448 L11.8497883,34.5131406 L4.35536046,41.99562 L10.7015317,46.9625983 C10.277561,47.771804 9.87354642,48.576395 9.48983928,49.3754248 C9.48983928,49.3754248 11.6230455,52.8963797 14.3656655,55.6346256 C17.1082855,58.3728714 20.5470368,60.4149874 20.5470368,60.4149874 C21.3566817,60.0274217 22.1720319,59.6191028 22.9921014,59.1903958 L28.1109351,65.7511934 L35.6183351,58.243793 L33.4772321,52.7541006 C38.6398809,49.118661 50.6163183,39.350447 55.5985691,34.3813409 C68.3804174,21.6015902 71.5725163,2.87968285 69.346562,0.653728549 L69.346562,0.653728549 Z M40.76096,29.0397053 C42.7223879,30.9980061 45.9024908,30.9980061 47.8639187,29.0397053 C49.8253466,27.0814046 49.8253466,23.9063716 47.8639187,21.9480708 C45.9024908,19.9897701 42.7223879,19.9897701 40.76096,21.9480708 C38.799532,23.9063716 38.799532,27.0814046 40.76096,29.0397053 L40.76096,29.0397053 L40.76096,29.0397053 L40.76096,29.0397053 Z M18.1323156,62.2795626 C17.6140839,63.1301681 16.9828293,63.9456714 16.2410833,64.7008204 C16.2120905,64.7304024 16.182869,64.7598221 16.1535158,64.7891752 C11.6090766,69.3336144 4.78742228,71.4066056 1.03447911,68.9658115 C-1.40631508,65.2128683 0.666676152,58.391214 5.21111534,53.8467748 C5.24046852,53.8174216 5.26988817,53.7882 5.29937322,53.7591103 C6.05454631,53.0173776 6.870071,52.3861341 7.72069528,51.8679125 L8.48458899,53.3304427 C8.3593735,53.4436441 8.23573212,53.5602086 8.11382075,53.6801146 C8.08989116,53.7037476 8.06600857,53.7274816 8.04217382,53.7513164 C4.35209307,57.4413971 3.07694568,62.2780419 4.86686526,65.1334253 C7.72224869,66.9233449 12.5588934,65.6481975 16.2489742,61.9581168 C16.2728089,61.934282 16.2965429,61.9103994 16.320176,61.8864698 C16.4400053,61.7644954 16.5565662,61.6408636 16.6697643,61.5156579 L18.1323156,62.2795626 L18.1323156,62.2795626 L18.1323156,62.2795626 L18.1323156,62.2795626 Z"/>
</svg>
