<svg xmlns="http://www.w3.org/2000/svg" width="70" height="71" viewBox="0 0 70 71">
  <path fill="#4990E2" fill-rule="evenodd" d="M69.346562,1.05355421 C67.1206077,-1.1724001 48.3652498,2.01815845 35.5650797,14.7796166 C30.5595025,19.7824305 20.754354,31.7706147 17.1004202,36.9543056 L11.8497883,34.9129662 L4.35536046,42.3954457 L10.7015317,47.3624239 C10.277561,48.1716297 9.87354642,48.9762207 9.48983928,49.7752505 C9.48983928,49.7752505 11.6230455,53.2962054 14.3656655,56.0344512 C17.1082855,58.7726971 20.5470368,60.8148131 20.5470368,60.8148131 C21.3566817,60.4272474 22.1720319,60.0189285 22.9921014,59.5902214 L28.1109351,66.1510191 L35.6183351,58.6436187 L33.4772321,53.1539262 C38.6398809,49.5184867 50.6163183,39.7502727 55.5985691,34.7811665 C68.3804174,22.0014158 71.5725163,3.27950851 69.346562,1.05355421 L69.346562,1.05355421 Z M40.76096,29.439531 C42.7223879,31.3978318 45.9024908,31.3978318 47.8639187,29.439531 C49.8253466,27.4812302 49.8253466,24.3061973 47.8639187,22.3478965 C45.9024908,20.3895957 42.7223879,20.3895957 40.76096,22.3478965 C38.799532,24.3061973 38.799532,27.4812302 40.76096,29.439531 L40.76096,29.439531 L40.76096,29.439531 L40.76096,29.439531 Z M18.1323156,62.6793883 C17.6140839,63.5299938 16.9828293,64.3454971 16.2410833,65.1006461 C16.2120905,65.1302281 16.182869,65.1596477 16.1535158,65.1890009 C11.6090766,69.7334401 4.78742228,71.8064313 1.03447911,69.3656371 C-1.40631508,65.6126939 0.666676152,58.7910396 5.21111534,54.2466004 C5.24046852,54.2172472 5.26988817,54.1880257 5.29937322,54.158936 C6.05454631,53.4172032 6.870071,52.7859598 7.72069528,52.2677382 L8.48458899,53.7302683 C8.3593735,53.8434697 8.23573212,53.9600343 8.11382075,54.0799402 C8.08989116,54.1035733 8.06600857,54.1273073 8.04217382,54.1511421 C4.35209307,57.8412228 3.07694568,62.6778675 4.86686526,65.533251 C7.72224869,67.3231706 12.5588934,66.0480232 16.2489742,62.3579424 C16.2728089,62.3341077 16.2965429,62.3102251 16.320176,62.2862955 C16.4400053,62.164321 16.5565662,62.0406893 16.6697643,61.9154836 L18.1323156,62.6793883 L18.1323156,62.6793883 L18.1323156,62.6793883 L18.1323156,62.6793883 Z"/>
</svg>
