<svg xmlns="http://www.w3.org/2000/svg" width="70" height="70" viewBox="0 0 70 70">
  <path fill="#4990E2" fill-rule="evenodd" d="M26.6556291,7.31677245 L26.6556291,0 L43.3443709,0 L43.3443709,7.17758567 C45.2529458,7.73315325 47.0801502,8.47977974 48.8038983,9.39537926 L53.8483761,4.35090144 L65.6490986,16.1516239 L60.6740943,21.1266281 C61.6261274,22.8688597 62.4044182,24.7196247 62.9856728,26.6556291 L70,26.6556291 L70,43.3443709 L62.9856728,43.3443709 C62.4044182,45.2803753 61.6261274,47.1311403 60.6740943,48.8733719 L65.6490986,53.8483761 L53.8483761,65.6490986 L48.8038983,60.6046207 C47.0801502,61.5202203 45.2529458,62.2668467 43.3443709,62.8224143 L43.3443709,70 L26.6556291,70 L26.6556291,62.6832275 C24.803603,62.1101219 23.0309952,61.356278 21.3584162,60.4423062 L16.1516239,65.6490986 L4.35090144,53.8483761 L9.62716734,48.5721102 C8.74869743,46.918264 8.02577397,45.1691821 7.4779034,43.3443709 L0,43.3443709 L0,26.6556291 L7.4779034,26.6556291 C8.02577397,24.8308179 8.74869743,23.081736 9.62716734,21.4278898 L4.35090144,16.1516239 L16.1516239,4.35090144 L21.3584162,9.55769378 C23.0309952,8.64372198 24.803603,7.88987808 26.6556291,7.31677245 L26.6556291,7.31677245 L26.6556291,7.31677245 L26.6556291,7.31677245 L26.6556291,7.31677245 L26.6556291,7.31677245 L26.6556291,7.31677245 Z M35.2317881,50.5298013 C43.6806475,50.5298013 50.5298013,43.6806475 50.5298013,35.2317881 C50.5298013,26.7829287 43.6806475,19.9337748 35.2317881,19.9337748 C26.7829287,19.9337748 19.9337748,26.7829287 19.9337748,35.2317881 C19.9337748,43.6806475 26.7829287,50.5298013 35.2317881,50.5298013 L35.2317881,50.5298013 L35.2317881,50.5298013 L35.2317881,50.5298013 L35.2317881,50.5298013 L35.2317881,50.5298013 Z"/>
</svg>
