<svg xmlns="http://www.w3.org/2000/svg" width="70" height="71" viewBox="0 0 70 71">
  <path fill="#4990E2" fill-rule="evenodd" d="M26.6556291,7.84720724 L26.6556291,0.530434783 L43.3443709,0.530434783 L43.3443709,7.70802046 C45.2529458,8.26358804 47.0801502,9.01021452 48.8038983,9.92581404 L53.8483761,4.88133622 L65.6490986,16.6820587 L60.6740943,21.6570629 C61.6261274,23.3992945 62.4044182,25.2500595 62.9856728,27.1860639 L70,27.1860639 L70,43.8748056 L62.9856728,43.8748056 C62.4044182,45.8108101 61.6261274,47.6615751 60.6740943,49.4038066 L65.6490986,54.3788109 L53.8483761,66.1795333 L48.8038983,61.1350555 C47.0801502,62.050655 45.2529458,62.7972815 43.3443709,63.3528491 L43.3443709,70.5304348 L26.6556291,70.5304348 L26.6556291,63.2136623 C24.803603,62.6405567 23.0309952,61.8867128 21.3584162,60.972741 L16.1516239,66.1795333 L4.35090144,54.3788109 L9.62716734,49.102545 C8.74869743,47.4486988 8.02577397,45.6996169 7.4779034,43.8748056 L0,43.8748056 L0,27.1860639 L7.4779034,27.1860639 C8.02577397,25.3612527 8.74869743,23.6121708 9.62716734,21.9583246 L4.35090144,16.6820587 L16.1516239,4.88133622 L21.3584162,10.0881286 C23.0309952,9.17415677 24.803603,8.42031287 26.6556291,7.84720724 L26.6556291,7.84720724 L26.6556291,7.84720724 L26.6556291,7.84720724 L26.6556291,7.84720724 L26.6556291,7.84720724 L26.6556291,7.84720724 Z M35.2317881,51.0602361 C43.6806475,51.0602361 50.5298013,44.2110823 50.5298013,35.7622229 C50.5298013,27.3133634 43.6806475,20.4642096 35.2317881,20.4642096 C26.7829287,20.4642096 19.9337748,27.3133634 19.9337748,35.7622229 C19.9337748,44.2110823 26.7829287,51.0602361 35.2317881,51.0602361 L35.2317881,51.0602361 L35.2317881,51.0602361 L35.2317881,51.0602361 L35.2317881,51.0602361 L35.2317881,51.0602361 Z"/>
</svg>
