<svg xmlns="http://www.w3.org/2000/svg" width="55" height="71" viewBox="0 0 55 71">
  <path fill="#4990E2" fill-rule="evenodd" d="M50,5.62177826 L40,5.62177826 C40,2.87177826 37.75,0.621778265 35,0.621778265 L20,0.621778265 C17.25,0.621778265 15,2.87177826 15,5.62177826 L5,5.62177826 C2.25,5.62177826 0,7.87177826 0,10.6217783 L0,15.6217783 C0,18.3717783 2.25,20.6217783 5,20.6217783 L5,65.6217783 C5,68.3717783 7.25,70.6217783 10,70.6217783 L45,70.6217783 C47.75,70.6217783 50,68.3717783 50,65.6217783 L50,20.6217783 C52.75,20.6217783 55,18.3717783 55,15.6217783 L55,10.6217783 C55,7.87177826 52.75,5.62177826 50,5.62177826 L50,5.62177826 L50,5.62177826 Z M45,65.6217783 L10,65.6217783 L10,20.6217783 L15,20.6217783 L15,60.6217783 L20,60.6217783 L20,20.6217783 L25,20.6217783 L25,60.6217783 L30,60.6217783 L30,20.6217783 L35,20.6217783 L35,60.6217783 L40,60.6217783 L40,20.6217783 L45,20.6217783 L45,65.6217783 L45,65.6217783 L45,65.6217783 Z M50,15.6217783 L5,15.6217783 L5,10.6217783 L50,10.6217783 L50,15.6217783 L50,15.6217783 L50,15.6217783 Z"/>
</svg>
