<svg xmlns="http://www.w3.org/2000/svg" width="55" height="70" viewBox="0 0 55 70">
  <path fill="#4990E2" fill-rule="evenodd" d="M50,5 L40,5 C40,2.25 37.75,0 35,0 L20,0 C17.25,0 15,2.25 15,5 L5,5 C2.25,5 0,7.25 0,10 L0,15 C0,17.75 2.25,20 5,20 L5,65 C5,67.75 7.25,70 10,70 L45,70 C47.75,70 50,67.75 50,65 L50,20 C52.75,20 55,17.75 55,15 L55,10 C55,7.25 52.75,5 50,5 L50,5 L50,5 Z M45,65 L10,65 L10,20 L15,20 L15,60 L20,60 L20,20 L25,20 L25,60 L30,60 L30,20 L35,20 L35,60 L40,60 L40,20 L45,20 L45,65 L45,65 L45,65 Z M50,15 L5,15 L5,10 L50,10 L50,15 L50,15 L50,15 Z"/>
</svg>
