<svg xmlns="http://www.w3.org/2000/svg" width="70" height="57" viewBox="0 0 70 57">
  <path fill="#4990E2" fill-rule="evenodd" d="M70,6.73273382 C67.4258098,7.87511714 64.657544,8.64722058 61.7530668,8.99507166 C64.7174565,7.21700111 66.9936203,4.40285356 68.0659008,1.05026141 C65.2914902,2.69657562 62.2190531,3.89072951 58.9463955,4.53440508 C56.328167,1.74412012 52.595668,0 48.4652884,0 C40.5337921,4.36630487e-14 34.1052295,6.42907462 34.1052295,14.3600589 C34.1052295,15.4860047 34.2310458,16.5823527 34.476892,17.6327165 C22.541498,17.0346154 11.9600247,11.3157858 4.87703302,2.62846993 C3.64083796,4.74845153 2.93274362,7.21495282 2.93274362,9.84716089 C2.93274362,14.8300394 5.46694094,19.224751 9.32136448,21.8009895 C6.9674168,21.7274046 4.75275294,21.0811175 2.81650308,20.0047403 C2.81430117,20.0651649 2.81430117,20.124975 2.81430117,20.18499 C2.81430117,27.14406 7.76502147,32.9468695 14.333892,34.2669933 C13.1299063,34.595232 11.8615531,34.7688247 10.5517219,34.7688247 C9.62543334,34.7688247 8.72730877,34.681209 7.84895021,34.5127883 C9.67761356,40.2177919 14.9800767,44.3701906 21.2652589,44.4864312 C16.3463895,48.3387552 10.1553263,50.6333536 3.42668909,50.6333536 C2.2683291,50.6333536 1.12435835,50.5651455 0,50.4331332 C6.35789649,54.5075944 13.9053382,56.8842269 22.0160601,56.8842269 C48.4298018,56.8842269 62.8723044,35.002842 62.8723044,16.0243981 C62.8723044,15.4020759 62.8579664,14.784004 62.8318506,14.168134 C65.6364736,12.1418105 68.070868,9.61324601 69.997286,6.73283623"/>
</svg>
