<?xml version="1.0" standalone="no"?>
<!DOCTYPE svg PUBLIC "-//W3C//DTD SVG 20010904//EN"
 "http://www.w3.org/TR/2001/REC-SVG-20010904/DTD/svg10.dtd">
<svg version="1.0" xmlns="http://www.w3.org/2000/svg"
 width="700.000000pt" height="700.000000pt" viewBox="0 0 700.000000 700.000000"
 preserveAspectRatio="xMidYMid meet">
<metadata>
Created by potrace 1.11, written by Peter Selinger 2001-2013
</metadata>
<g transform="translate(0.000000,700.000000) scale(0.100000,-0.100000)"
fill="#000000" stroke="none">
<path d="M175 6980 c-65 -25 -130 -91 -155 -158 -20 -51 -20 -92 -20 -3322 0
-3229 0 -3271 20 -3322 22 -59 76 -119 135 -151 l40 -22 3290 -2 c3251 -2
3291 -2 3341 18 67 25 129 88 154 156 20 53 20 77 17 3336 l-2 3282 -21 45
c-28 60 -88 116 -149 140 -49 19 -116 19 -3325 19 -3214 0 -3276 0 -3325 -19z
m2695 -1246 c183 -40 279 -116 395 -309 32 -52 115 -221 115 -232 0 -3 7 -21
16 -41 27 -63 30 -69 148 -362 111 -277 280 -696 561 -1395 75 -187 143 -353
150 -370 7 -16 40 -100 75 -185 224 -561 355 -882 377 -925 44 -87 99 -160
142 -189 38 -26 52 -30 153 -35 l112 -6 1 -200 c0 -110 -1 -209 -3 -221 -4
-20 -8 -21 -210 -18 -260 3 -294 10 -459 98 -62 33 -159 151 -212 259 -28 56
-55 116 -60 132 -5 17 -57 156 -115 310 -59 154 -167 440 -241 635 -73 195
-188 499 -255 675 -67 176 -125 328 -127 338 -7 23 -14 7 -117 -268 -41 -110
-123 -326 -181 -480 -59 -154 -122 -320 -140 -370 -19 -49 -97 -256 -175 -460
-77 -203 -177 -467 -221 -585 -45 -118 -88 -231 -96 -250 l-15 -36 -299 1
c-164 0 -299 1 -299 4 0 4 223 554 245 606 7 17 124 305 260 640 136 336 272
671 302 745 30 74 122 302 205 505 82 204 156 384 163 400 7 17 31 75 53 130
l41 101 -63 169 c-35 94 -86 231 -114 306 -91 245 -149 332 -261 386 -52 26
-66 28 -206 31 l-150 4 0 217 c0 119 4 221 8 228 24 37 354 49 497 17z"/>
</g>
</svg>
